<svg width="40" height="40" viewBox="0 0 40 40" fill="none" xmlns="http://www.w3.org/2000/svg">
<path d="M24.4513 31.6869L10.1614 14.9612L19.9629 2.57161C21.0474 1.24073 22.6863 0.42277 24.4887 0.418167H24.6726V0.00266945H15.7977V0.410111H16.2039C17.3582 0.410111 17.93 1.55762 17.2157 2.58466L7.306 16.1966L21.2274 32.448C28.6892 41.1558 34.9874 40.2814 37.77 39.5909V39.1305C32.603 39.1305 27.8071 35.6278 24.4513 31.6873V31.6869ZM30.0108 26.8463L19.2937 14.3017L26.6445 5.00971C27.4583 4.01145 28.6871 3.39798 30.0389 3.39453H30.1772V3.083H23.5208V3.38877H23.8255C24.6911 3.38877 25.1201 4.24931 24.5843 5.01968L17.1523 15.2286L27.5931 27.4168C33.1895 33.9481 37.9132 33.2921 40 32.7742V32.4289C36.1248 32.4289 32.5277 29.802 30.0108 26.8467V26.8463ZM8.64617 31.7625C7.17538 31.7625 5.98228 30.4715 5.95497 28.8682V3.32241C5.99629 1.73256 7.18343 0.456546 8.64546 0.456546L9.17705 0.457693L9.18371 0.00189671L5.83205 0V0.00266945H3.35167V0H0L0.00699994 0.460363L0.538589 0.456546C2.00308 0.456546 3.19268 1.73754 3.2291 3.33276V28.8678C3.20178 30.4711 2.00868 31.7625 0.538236 31.7625L0.00665795 31.7617L0 32.2171H9.18476L9.17776 31.7617L8.64617 31.7625Z" fill="white"/>
</svg>
